<?xml version="1.0" encoding="UTF-8"?>
<svg xmlns="http://www.w3.org/2000/svg" xmlns:xlink="http://www.w3.org/1999/xlink" width="32pt" height="32pt" viewBox="0 0 32 32" version="1.1">
<g id="surface1">
<path style=" stroke:none;fill-rule:nonzero;fill:rgb(37.647059%,37.254902%,42.745098%);fill-opacity:1;" d="M 5.265625 0.984375 L 8.734375 4.453125 C 9.175781 4.894531 9.175781 5.609375 8.734375 6.046875 L 6.15625 8.628906 C 5.714844 9.066406 5 9.066406 4.5625 8.628906 L 1.089844 5.15625 C 0.855469 4.921875 0.449219 5.03125 0.363281 5.355469 C -0.296875 7.785156 0.324219 10.488281 2.234375 12.394531 C 4.308594 14.46875 7.328125 15.023438 9.910156 14.0625 L 24.925781 30.480469 C 26.464844 32.167969 29.101562 32.226562 30.71875 30.609375 C 32.339844 28.988281 32.273438 26.335938 30.566406 24.796875 L 14.113281 9.953125 C 15.15625 7.339844 14.617188 4.242188 12.503906 2.125 C 10.59375 0.21875 7.890625 -0.40625 5.460938 0.253906 C 5.136719 0.339844 5.027344 0.746094 5.265625 0.984375 Z M 29 27.746094 C 29 28.410156 28.460938 28.949219 27.796875 28.949219 C 27.132812 28.949219 26.597656 28.410156 26.597656 27.746094 C 26.597656 27.082031 27.132812 26.546875 27.796875 26.546875 C 28.460938 26.546875 29 27.082031 29 27.746094 Z M 29 27.746094 "/>
<path style=" stroke:none;fill-rule:nonzero;fill:rgb(32.54902%,31.764706%,36.862745%);fill-opacity:1;" d="M 12.746094 8.441406 L 14.191406 9.746094 C 15.125 7.175781 14.5625 4.1875 12.503906 2.125 C 12.347656 1.96875 12.1875 1.824219 12.023438 1.6875 C 13.382812 3.699219 13.621094 6.242188 12.746094 8.441406 Z M 12.746094 8.441406 "/>
<path style=" stroke:none;fill-rule:nonzero;fill:rgb(32.54902%,31.764706%,36.862745%);fill-opacity:1;" d="M 23.546875 28.972656 L 24.925781 30.480469 C 26.464844 32.167969 29.101562 32.226562 30.71875 30.609375 C 32.339844 28.988281 32.273438 26.335938 30.566406 24.796875 L 30.007812 24.292969 C 30.867188 25.816406 30.65625 27.789062 29.351562 29.097656 C 27.734375 30.710938 25.085938 30.660156 23.546875 28.972656 "/>
<path style=" stroke:none;fill-rule:nonzero;fill:rgb(32.54902%,31.764706%,36.862745%);fill-opacity:1;" d="M 9.910156 14.0625 L 8.542969 12.546875 C 6.152344 13.441406 3.390625 13.03125 1.347656 11.320312 C 1.601562 11.699219 1.898438 12.058594 2.234375 12.394531 C 4.308594 14.46875 7.328125 15.023438 9.910156 14.0625 "/>
<path style=" stroke:none;fill-rule:nonzero;fill:rgb(32.54902%,31.764706%,36.862745%);fill-opacity:1;" d="M 19.117188 14.46875 L 17.839844 15.742188 L 16.984375 14.890625 C 16.453125 14.359375 15.59375 14.359375 15.066406 14.890625 L 13.898438 16.058594 C 14.191406 16.816406 14.191406 17.660156 13.894531 18.417969 L 16.71875 21.507812 C 17.335938 21.21875 18.023438 21.136719 18.683594 21.257812 C 19.074219 21.332031 19.480469 21.207031 19.761719 20.925781 L 20.429688 20.253906 C 20.960938 19.726562 20.960938 18.867188 20.429688 18.335938 C 19.960938 17.863281 19.960938 17.097656 20.429688 16.625 L 20.941406 16.117188 Z M 19.117188 14.46875 "/>
<path style=" stroke:none;fill-rule:nonzero;fill:rgb(91.372549%,92.156863%,94.901961%);fill-opacity:1;" d="M 31.722656 3.980469 L 29.527344 1.785156 C 29.316406 1.574219 28.960938 1.628906 28.820312 1.890625 L 27.636719 4.128906 L 16.839844 14.929688 L 18.574219 16.667969 L 29.375 5.867188 L 31.617188 4.6875 C 31.878906 4.546875 31.933594 4.191406 31.722656 3.980469 Z M 31.722656 3.980469 "/>
<path style=" stroke:none;fill-rule:nonzero;fill:rgb(78.039216%,79.215686%,82.745098%);fill-opacity:1;" d="M 31.722656 3.980469 L 31.167969 3.425781 C 31.207031 3.609375 31.125 3.8125 30.941406 3.910156 L 28.703125 5.09375 L 17.902344 15.890625 L 16.890625 14.878906 L 16.839844 14.929688 L 18.574219 16.667969 L 29.375 5.867188 L 31.617188 4.6875 C 31.878906 4.546875 31.933594 4.191406 31.722656 3.980469 Z M 31.722656 3.980469 "/>
<path style=" stroke:none;fill-rule:nonzero;fill:rgb(100%,86.27451%,39.215686%);fill-opacity:1;" d="M 14.90625 21.230469 C 15.84375 20.292969 17.210938 20.050781 18.375 20.5 L 19.542969 19.332031 C 20.070312 18.800781 20.070312 17.941406 19.542969 17.414062 L 16.09375 13.964844 C 15.5625 13.4375 14.703125 13.4375 14.175781 13.964844 L 13.007812 15.132812 C 13.457031 16.292969 13.214844 17.664062 12.277344 18.601562 C 11.339844 19.539062 9.972656 19.78125 8.8125 19.328125 L 2.617188 25.523438 C 1.136719 27.003906 1.136719 29.40625 2.617188 30.886719 C 4.101562 32.371094 6.503906 32.371094 7.984375 30.886719 L 14.175781 24.695312 C 13.726562 23.535156 13.96875 22.164062 14.90625 21.230469 Z M 14.90625 21.230469 "/>
<path style=" stroke:none;fill-rule:nonzero;fill:rgb(100%,78.431373%,31.372549%);fill-opacity:1;" d="M 19.542969 17.414062 L 18.726562 16.597656 C 18.839844 17.046875 18.722656 17.542969 18.371094 17.894531 L 17.203125 19.0625 C 16.042969 18.609375 14.675781 18.851562 13.738281 19.789062 C 12.800781 20.726562 12.558594 22.09375 13.007812 23.257812 L 6.816406 29.449219 C 5.464844 30.800781 3.34375 30.917969 1.859375 29.804688 C 2.042969 30.195312 2.292969 30.566406 2.617188 30.886719 C 4.101562 32.371094 6.503906 32.371094 7.984375 30.886719 L 14.175781 24.695312 C 13.726562 23.535156 13.96875 22.164062 14.90625 21.230469 C 15.84375 20.292969 17.210938 20.050781 18.375 20.5 L 19.542969 19.332031 C 20.070312 18.800781 20.070312 17.941406 19.542969 17.414062 Z M 19.542969 17.414062 "/>
<path style=" stroke:none;fill-rule:nonzero;fill:rgb(100%,41.960784%,36.078431%);fill-opacity:1;" d="M 4.8125 27.472656 C 4.683594 27.472656 4.550781 27.425781 4.453125 27.324219 C 4.257812 27.128906 4.257812 26.808594 4.453125 26.609375 L 9.246094 21.820312 C 9.441406 21.621094 9.761719 21.621094 9.960938 21.820312 C 10.15625 22.015625 10.15625 22.335938 9.960938 22.535156 L 5.167969 27.324219 C 5.070312 27.425781 4.941406 27.472656 4.8125 27.472656 Z M 4.8125 27.472656 "/>
<path style=" stroke:none;fill-rule:nonzero;fill:rgb(100%,41.960784%,36.078431%);fill-opacity:1;" d="M 6.582031 29.246094 C 6.453125 29.246094 6.324219 29.195312 6.222656 29.097656 C 6.027344 28.898438 6.027344 28.578125 6.222656 28.382812 L 11.015625 23.589844 C 11.214844 23.390625 11.535156 23.390625 11.730469 23.589844 C 11.929688 23.785156 11.929688 24.105469 11.730469 24.304688 L 6.9375 29.097656 C 6.839844 29.195312 6.710938 29.246094 6.582031 29.246094 Z M 6.582031 29.246094 "/>
</g>
</svg>
