<?xml version="1.0" encoding="UTF-8"?>
<svg xmlns="http://www.w3.org/2000/svg" xmlns:xlink="http://www.w3.org/1999/xlink" width="32pt" height="32pt" viewBox="0 0 32 32" version="1.1">
<g id="surface1">
<path style=" stroke:none;fill-rule:nonzero;fill:rgb(78.039216%,60.392157%,51.372549%);fill-opacity:1;" d="M 27.5625 30.96875 L 5.03125 30.96875 C 5.160156 27.96875 7.027344 25.359375 10.097656 24.808594 C 10.46875 24.742188 10.769531 24.476562 10.894531 24.117188 C 11.15625 23.367188 11.628906 22.71875 12.246094 22.242188 C 12.027344 20.917969 12.175781 19.542969 12.703125 18.269531 L 13.769531 15.679688 C 13.988281 15.152344 14.589844 14.902344 15.117188 15.121094 C 19.246094 16.824219 17.722656 16.195312 21.769531 17.863281 C 22.296875 18.082031 22.546875 18.683594 22.328125 19.210938 C 21.265625 21.785156 20.921875 23.023438 19.480469 24.367188 C 19.476562 24.367188 19.46875 24.367188 19.460938 24.367188 C 20.5 24.285156 21.480469 24.957031 21.785156 25.953125 C 21.929688 26.433594 22.386719 26.746094 22.882812 26.683594 C 25.609375 26.335938 27.65625 28.484375 27.5625 30.96875 Z M 27.5625 30.96875 "/>
<path style=" stroke:none;fill-rule:nonzero;fill:rgb(66.666667%,66.666667%,66.666667%);fill-opacity:1;" d="M 21.769531 17.863281 C 22.296875 18.082031 22.546875 18.683594 22.328125 19.210938 C 21.265625 21.785156 20.921875 23.023438 19.480469 24.367188 C 19.21875 24.382812 18.949219 24.449219 18.691406 24.574219 C 18.046875 21.664062 14.582031 20.433594 12.246094 22.242188 C 12.027344 20.917969 12.175781 19.542969 12.703125 18.269531 L 13.769531 15.679688 C 13.988281 15.152344 14.589844 14.902344 15.117188 15.121094 C 15.289062 15.191406 21.835938 17.890625 21.769531 17.863281 Z M 21.769531 17.863281 "/>
<path style=" stroke:none;fill-rule:nonzero;fill:rgb(30.196078%,30.588235%,34.901961%);fill-opacity:1;" d="M 16.890625 20.171875 C 16.363281 19.957031 16.113281 19.351562 16.328125 18.824219 C 17.789062 15.28125 16.703125 17.921875 21.804688 5.550781 C 22.023438 5.023438 22.625 4.773438 23.152344 4.988281 C 23.679688 5.207031 23.929688 5.808594 23.714844 6.335938 C 18.960938 17.855469 19.800781 15.824219 18.238281 19.613281 C 18.019531 20.136719 17.417969 20.390625 16.890625 20.171875 Z M 16.890625 20.171875 "/>
<path style=" stroke:none;fill-rule:nonzero;fill:rgb(100%,42.745098%,47.843137%);fill-opacity:1;" d="M 22.367188 6.898438 C 20.527344 6.140625 19.648438 4.027344 20.40625 2.1875 L 21.042969 0.640625 C 21.261719 0.113281 21.863281 -0.140625 22.390625 0.078125 L 27.152344 2.042969 C 27.679688 2.261719 27.933594 2.863281 27.714844 3.390625 L 27.078125 4.9375 C 26.304688 6.804688 24.191406 7.648438 22.367188 6.898438 Z M 22.558594 2.378906 L 22.3125 2.972656 C 21.988281 3.761719 22.367188 4.664062 23.152344 4.988281 C 23.9375 5.3125 24.839844 4.945312 25.167969 4.152344 L 25.414062 3.558594 Z M 22.558594 2.378906 "/>
<path style=" stroke:none;fill-rule:nonzero;fill:rgb(87.843137%,71.764706%,63.921569%);fill-opacity:1;" d="M 14.441406 28.769531 C 13.878906 28.667969 13.507812 28.132812 13.609375 27.570312 C 13.871094 26.113281 15.140625 25.054688 16.625 25.054688 C 17.195312 25.054688 17.65625 25.519531 17.65625 26.089844 C 17.65625 26.660156 17.195312 27.121094 16.625 27.121094 C 16.140625 27.121094 15.726562 27.464844 15.640625 27.9375 C 15.539062 28.5 15 28.871094 14.441406 28.769531 Z M 14.441406 28.769531 "/>
<path style=" stroke:none;fill-rule:nonzero;fill:rgb(87.843137%,71.764706%,63.921569%);fill-opacity:1;" d="M 12.238281 22.242188 C 13.410156 21.34375 14.84375 22.9375 13.855469 24.035156 C 13.503906 24.425781 13.226562 24.890625 13.046875 25.40625 C 12.921875 25.765625 12.621094 26.03125 12.246094 26.097656 C 10.074219 26.488281 8.375 27.921875 7.597656 30.15625 C 7.425781 30.644531 6.960938 30.96875 6.441406 30.96875 C 5.644531 30.96875 5.070312 30.214844 5.269531 29.445312 C 5.964844 26.804688 7.8125 25.21875 10.097656 24.808594 C 10.46875 24.742188 10.769531 24.476562 10.894531 24.117188 C 11.167969 23.328125 11.648438 22.699219 12.238281 22.242188 Z M 12.238281 22.242188 "/>
<path style=" stroke:none;fill-rule:nonzero;fill:rgb(62.745098%,46.666667%,39.607843%);fill-opacity:1;" d="M 29.875 32 L 2.128906 32 C 1.558594 32 1.09375 31.539062 1.09375 30.96875 C 1.09375 30.398438 1.558594 29.933594 2.128906 29.933594 L 29.875 29.933594 C 30.441406 29.933594 30.90625 30.398438 30.90625 30.96875 C 30.90625 31.539062 30.441406 32 29.875 32 Z M 29.875 32 "/>
<path style=" stroke:none;fill-rule:nonzero;fill:rgb(69.803922%,69.803922%,69.803922%);fill-opacity:1;" d="M 15.347656 15.214844 C 15.804688 15.402344 16.003906 15.925781 15.8125 16.378906 C 14.578125 19.273438 14.257812 20.039062 14.195312 21.429688 C 13.464844 21.527344 12.800781 21.816406 12.246094 22.242188 C 12.027344 20.917969 12.175781 19.542969 12.703125 18.269531 L 13.769531 15.679688 C 13.988281 15.152344 14.589844 14.902344 15.117188 15.121094 Z M 15.347656 15.214844 "/>
</g>
</svg>
