<?xml version="1.0" encoding="UTF-8"?>
<svg xmlns="http://www.w3.org/2000/svg" xmlns:xlink="http://www.w3.org/1999/xlink" width="32pt" height="32pt" viewBox="0 0 32 32" version="1.1">
<g id="surface1">
<path style=" stroke:none;fill-rule:nonzero;fill:rgb(75.686275%,70.588235%,60.392157%);fill-opacity:1;" d="M 2.5 26 L 0.5 26 C 0.222656 26 0 25.777344 0 25.5 C 0 25.222656 0.222656 25 0.5 25 L 2.5 25 C 2.777344 25 3 25.222656 3 25.5 C 3 25.777344 2.777344 26 2.5 26 Z M 2.5 26 "/>
<path style=" stroke:none;fill-rule:nonzero;fill:rgb(75.686275%,70.588235%,60.392157%);fill-opacity:1;" d="M 31.5 26 L 29.5 26 C 29.222656 26 29 25.777344 29 25.5 C 29 25.222656 29.222656 25 29.5 25 L 31.5 25 C 31.777344 25 32 25.222656 32 25.5 C 32 25.777344 31.777344 26 31.5 26 Z M 31.5 26 "/>
<path style=" stroke:none;fill-rule:nonzero;fill:rgb(75.686275%,70.588235%,60.392157%);fill-opacity:1;" d="M 2.5 22 L 0.5 22 C 0.222656 22 0 21.777344 0 21.5 C 0 21.222656 0.222656 21 0.5 21 L 2.5 21 C 2.777344 21 3 21.222656 3 21.5 C 3 21.777344 2.777344 22 2.5 22 Z M 2.5 22 "/>
<path style=" stroke:none;fill-rule:nonzero;fill:rgb(75.686275%,70.588235%,60.392157%);fill-opacity:1;" d="M 31.5 22 L 29.5 22 C 29.222656 22 29 21.777344 29 21.5 C 29 21.222656 29.222656 21 29.5 21 L 31.5 21 C 31.777344 21 32 21.222656 32 21.5 C 32 21.777344 31.777344 22 31.5 22 Z M 31.5 22 "/>
<path style=" stroke:none;fill-rule:nonzero;fill:rgb(75.686275%,70.588235%,60.392157%);fill-opacity:1;" d="M 2.5 18 L 0.5 18 C 0.222656 18 0 17.777344 0 17.5 C 0 17.222656 0.222656 17 0.5 17 L 2.5 17 C 2.777344 17 3 17.222656 3 17.5 C 3 17.777344 2.777344 18 2.5 18 Z M 2.5 18 "/>
<path style=" stroke:none;fill-rule:nonzero;fill:rgb(75.686275%,70.588235%,60.392157%);fill-opacity:1;" d="M 31.5 18 L 29.5 18 C 29.222656 18 29 17.777344 29 17.5 C 29 17.222656 29.222656 17 29.5 17 L 31.5 17 C 31.777344 17 32 17.222656 32 17.5 C 32 17.777344 31.777344 18 31.5 18 Z M 31.5 18 "/>
<path style=" stroke:none;fill-rule:nonzero;fill:rgb(75.686275%,70.588235%,60.392157%);fill-opacity:1;" d="M 2.5 14 L 0.5 14 C 0.222656 14 0 13.777344 0 13.5 C 0 13.222656 0.222656 13 0.5 13 L 2.5 13 C 2.777344 13 3 13.222656 3 13.5 C 3 13.777344 2.777344 14 2.5 14 Z M 2.5 14 "/>
<path style=" stroke:none;fill-rule:nonzero;fill:rgb(75.686275%,70.588235%,60.392157%);fill-opacity:1;" d="M 31.5 14 L 29.5 14 C 29.222656 14 29 13.777344 29 13.5 C 29 13.222656 29.222656 13 29.5 13 L 31.5 13 C 31.777344 13 32 13.222656 32 13.5 C 32 13.777344 31.777344 14 31.5 14 Z M 31.5 14 "/>
<path style=" stroke:none;fill-rule:nonzero;fill:rgb(87.058824%,84.313725%,79.607843%);fill-opacity:1;" d="M 29.902344 13.5 L 28.816406 12.394531 C 28.253906 11.820312 27.492188 11.5 26.691406 11.5 L 5.183594 11.5 C 4.382812 11.5 3.621094 11.820312 3.058594 12.394531 L 1.972656 13.5 Z M 29.902344 13.5 "/>
<path style=" stroke:none;fill-rule:nonzero;fill:rgb(87.058824%,84.313725%,79.607843%);fill-opacity:1;" d="M 29.902344 17.5 L 28.816406 16.394531 C 28.253906 15.820312 27.492188 15.5 26.691406 15.5 L 5.183594 15.5 C 4.382812 15.5 3.621094 15.820312 3.058594 16.394531 L 1.972656 17.5 Z M 29.902344 17.5 "/>
<path style=" stroke:none;fill-rule:nonzero;fill:rgb(87.058824%,84.313725%,79.607843%);fill-opacity:1;" d="M 29.902344 21.5 L 28.816406 20.394531 C 28.253906 19.820312 27.492188 19.5 26.691406 19.5 L 5.183594 19.5 C 4.382812 19.5 3.621094 19.820312 3.058594 20.394531 L 1.972656 21.5 Z M 29.902344 21.5 "/>
<path style=" stroke:none;fill-rule:nonzero;fill:rgb(87.058824%,84.313725%,79.607843%);fill-opacity:1;" d="M 29.902344 25.5 L 28.816406 24.394531 C 28.253906 23.820312 27.492188 23.5 26.691406 23.5 L 5.183594 23.5 C 4.382812 23.5 3.621094 23.820312 3.058594 24.394531 L 1.972656 25.5 Z M 29.902344 25.5 "/>
<path style=" stroke:none;fill-rule:nonzero;fill:rgb(75.686275%,70.588235%,60.392157%);fill-opacity:1;" d="M 31.5 30 L 29.5 30 C 29.222656 30 29 29.777344 29 29.5 C 29 29.222656 29.222656 29 29.5 29 L 31.5 29 C 31.777344 29 32 29.222656 32 29.5 C 32 29.777344 31.777344 30 31.5 30 Z M 31.5 30 "/>
<path style=" stroke:none;fill-rule:nonzero;fill:rgb(75.686275%,70.588235%,60.392157%);fill-opacity:1;" d="M 2.5 30 L 0.5 30 C 0.222656 30 0 29.777344 0 29.5 C 0 29.222656 0.222656 29 0.5 29 L 2.5 29 C 2.777344 29 3 29.222656 3 29.5 C 3 29.777344 2.777344 30 2.5 30 Z M 2.5 30 "/>
<path style=" stroke:none;fill-rule:nonzero;fill:rgb(75.686275%,70.588235%,60.392157%);fill-opacity:1;" d="M 30.027344 13.5 L 28.941406 14.605469 C 28.378906 15.179688 27.617188 15.5 26.816406 15.5 L 5.308594 15.5 C 4.507812 15.5 3.746094 15.179688 3.183594 14.605469 L 2.097656 13.5 Z M 30.027344 13.5 "/>
<path style=" stroke:none;fill-rule:nonzero;fill:rgb(75.686275%,70.588235%,60.392157%);fill-opacity:1;" d="M 30.027344 17.5 L 28.941406 18.605469 C 28.378906 19.179688 27.617188 19.5 26.816406 19.5 L 5.308594 19.5 C 4.507812 19.5 3.746094 19.179688 3.183594 18.605469 L 2.097656 17.5 Z M 30.027344 17.5 "/>
<path style=" stroke:none;fill-rule:nonzero;fill:rgb(75.686275%,70.588235%,60.392157%);fill-opacity:1;" d="M 30.027344 21.5 L 28.941406 22.605469 C 28.378906 23.179688 27.617188 23.5 26.816406 23.5 L 5.308594 23.5 C 4.507812 23.5 3.746094 23.179688 3.183594 22.605469 L 2.097656 21.5 Z M 30.027344 21.5 "/>
<path style=" stroke:none;fill-rule:nonzero;fill:rgb(75.686275%,70.588235%,60.392157%);fill-opacity:1;" d="M 30.027344 25.5 L 28.941406 26.605469 C 28.378906 27.179688 27.617188 27.5 26.816406 27.5 L 5.308594 27.5 C 4.507812 27.5 3.746094 27.179688 3.183594 26.605469 L 2.097656 25.5 Z M 30.027344 25.5 "/>
<path style=" stroke:none;fill-rule:nonzero;fill:rgb(75.686275%,70.588235%,60.392157%);fill-opacity:1;" d="M 30.027344 29.5 L 28.941406 30.605469 C 28.378906 31.179688 27.617188 31.5 26.816406 31.5 L 5.308594 31.5 C 4.507812 31.5 3.746094 31.179688 3.183594 30.605469 L 2.097656 29.5 Z M 30.027344 29.5 "/>
<path style=" stroke:none;fill-rule:nonzero;fill:rgb(87.058824%,84.313725%,79.607843%);fill-opacity:1;" d="M 29.902344 29.5 L 28.816406 28.394531 C 28.253906 27.820312 27.492188 27.5 26.691406 27.5 L 5.183594 27.5 C 4.382812 27.5 3.621094 27.820312 3.058594 28.394531 L 1.972656 29.5 Z M 29.902344 29.5 "/>
<path style=" stroke:none;fill-rule:nonzero;fill:rgb(98.431373%,88.627451%,73.72549%);fill-opacity:1;" d="M 25 4 C 25.640625 3.359375 26 2.488281 26 1.585938 L 26 0.5 L 24.914062 0.5 C 24.011719 0.5 23.140625 0.859375 22.5 1.5 L 9.5 1.5 C 8.859375 0.859375 7.988281 0.5 7.085938 0.5 L 6 0.5 L 6 1.585938 C 6 2.488281 6.359375 3.359375 7 4 L 7 26 C 6.359375 26.640625 6 27.511719 6 28.414062 L 6 29.5 L 7.085938 29.5 C 7.988281 29.5 8.859375 29.140625 9.5 28.5 L 22.5 28.5 C 23.140625 29.140625 24.011719 29.5 24.914062 29.5 L 26 29.5 L 26 28.414062 C 26 27.511719 25.640625 26.640625 25 26 Z M 25 4 "/>
<path style=" stroke:none;fill-rule:nonzero;fill:rgb(97.647059%,80.784314%,58.431373%);fill-opacity:1;" d="M 26 1.585938 L 26 0.5 L 24.914062 0.5 C 24.011719 0.5 23.140625 0.859375 22.5 1.5 L 19.5 1.5 L 19.5 21 C 19.5 22.378906 18.378906 23.5 17 23.5 L 7 23.5 L 7 26 C 6.359375 26.640625 6 27.511719 6 28.414062 L 6 29.5 L 7.085938 29.5 C 7.988281 29.5 8.859375 29.140625 9.5 28.5 L 22.5 28.5 C 23.140625 29.140625 24.011719 29.5 24.914062 29.5 L 26 29.5 L 26 28.414062 C 26 27.511719 25.640625 26.640625 25 26 L 25 4 C 25.640625 3.359375 26 2.488281 26 1.585938 Z M 26 1.585938 "/>
<path style=" stroke:none;fill-rule:nonzero;fill:rgb(78.823529%,61.568627%,40%);fill-opacity:1;" d="M 22.5 28.5 L 21.292969 28.5 L 21.144531 28.355469 C 20.953125 28.15625 20.953125 27.84375 21.144531 27.644531 C 21.34375 27.453125 21.65625 27.453125 21.855469 27.644531 L 22.355469 28.144531 C 22.453125 28.242188 22.5 28.371094 22.5 28.5 Z M 22.5 28.5 "/>
<path style=" stroke:none;fill-rule:nonzero;fill:rgb(78.823529%,61.568627%,40%);fill-opacity:1;" d="M 25 24.792969 L 25 26 C 24.871094 26 24.746094 25.953125 24.644531 25.855469 L 24.144531 25.355469 C 23.953125 25.15625 23.953125 24.84375 24.144531 24.644531 C 24.34375 24.453125 24.65625 24.453125 24.855469 24.644531 Z M 25 24.792969 "/>
<path style=" stroke:none;fill-rule:nonzero;fill:rgb(21.960784%,49.803922%,16.078431%);fill-opacity:1;" d="M 11.5 1.5 L 20.5 1.5 L 20.5 4.5 L 11.5 4.5 Z M 11.5 1.5 "/>
<path style=" stroke:none;fill-rule:nonzero;fill:rgb(21.960784%,49.803922%,16.078431%);fill-opacity:1;" d="M 11.5 25.5 L 20.5 25.5 L 20.5 28.5 L 11.5 28.5 Z M 11.5 25.5 "/>
<path style=" stroke:none;fill-rule:nonzero;fill:rgb(21.960784%,49.803922%,16.078431%);fill-opacity:1;" d="M 20.5 7 L 11.5 7 C 11.222656 7 11 6.777344 11 6.5 C 11 6.222656 11.222656 6 11.5 6 L 20.5 6 C 20.777344 6 21 6.222656 21 6.5 C 21 6.777344 20.777344 7 20.5 7 Z M 20.5 7 "/>
<path style=" stroke:none;fill-rule:nonzero;fill:rgb(21.960784%,49.803922%,16.078431%);fill-opacity:1;" d="M 20.5 9 L 11.5 9 C 11.222656 9 11 8.777344 11 8.5 C 11 8.222656 11.222656 8 11.5 8 L 20.5 8 C 20.777344 8 21 8.222656 21 8.5 C 21 8.777344 20.777344 9 20.5 9 Z M 20.5 9 "/>
<path style=" stroke:none;fill-rule:nonzero;fill:rgb(21.960784%,49.803922%,16.078431%);fill-opacity:1;" d="M 9 22 L 10.269531 22 C 10.617188 22.609375 11.273438 23 12 23 C 12.726562 23 13.382812 22.609375 13.730469 22 L 18.269531 22 C 18.617188 22.609375 19.273438 23 20 23 C 21.101562 23 22 22.101562 22 21 C 22 20.507812 21.820312 20.035156 21.5 19.679688 L 21.5 18.207031 L 22.5 19.207031 L 22.5 20 C 22.5 20.277344 22.722656 20.5 23 20.5 C 23.277344 20.5 23.5 20.277344 23.5 20 L 23.5 14 C 23.5 13.722656 23.277344 13.5 23 13.5 C 22.722656 13.5 22.5 13.722656 22.5 14 L 22.5 14.792969 L 21.5 15.792969 L 21.5 14 C 21.5 13.722656 21.277344 13.5 21 13.5 L 19.46875 13.5 C 19.226562 11.570312 17.605469 10.066406 15.628906 10.003906 C 15.585938 10 15.542969 10 15.5 10 C 15.457031 10 15.414062 10 15.371094 10.003906 C 13.394531 10.066406 11.773438 11.570312 11.53125 13.5 L 10.5 13.5 C 10.367188 13.5 10.238281 13.550781 10.144531 13.644531 L 8.644531 15.144531 C 8.550781 15.242188 8.5 15.367188 8.5 15.5 L 8.5 21.5 C 8.5 21.777344 8.722656 22 9 22 Z M 22.5 16.207031 L 22.5 17.792969 L 21.707031 17 Z M 19.5 14.5 L 20.5 14.5 L 20.5 19.0625 C 20.339844 19.023438 20.171875 19 20 19 L 19.5 19 Z M 19.328125 20.261719 C 19.332031 20.261719 19.332031 20.257812 19.335938 20.253906 C 19.519531 20.089844 19.753906 20 20 20 C 20.246094 20 20.480469 20.089844 20.664062 20.253906 C 20.667969 20.257812 20.667969 20.261719 20.671875 20.261719 C 20.878906 20.445312 21 20.710938 21 21 C 21 21.550781 20.550781 22 20 22 C 19.574219 22 19.199219 21.734375 19.0625 21.339844 C 19.0625 21.332031 19.058594 21.324219 19.054688 21.320312 C 19.019531 21.222656 19 21.117188 19 21 C 19 20.710938 19.121094 20.445312 19.328125 20.261719 Z M 18 21 L 14 21 C 14 20.636719 13.902344 20.292969 13.730469 20 L 18.265625 20 C 18.09375 20.296875 18 20.644531 18 21 Z M 15.5 11 C 16.328125 11 17 11.671875 17 12.5 C 17 13.328125 16.328125 14 15.5 14 C 14.671875 14 14 13.328125 14 12.5 C 14 11.671875 14.671875 11 15.5 11 Z M 13.007812 12.335938 C 13.003906 12.390625 13 12.445312 13 12.5 C 13 13.878906 14.121094 15 15.5 15 C 16.878906 15 18 13.878906 18 12.5 C 18 12.445312 17.996094 12.390625 17.992188 12.335938 C 18.3125 12.8125 18.5 13.382812 18.5 14 C 18.5 15.652344 17.152344 17 15.5 17 C 13.847656 17 12.5 15.652344 12.5 14 C 12.5 13.382812 12.6875 12.8125 13.007812 12.335938 Z M 12.5 16.640625 C 13.234375 17.472656 14.304688 18 15.5 18 C 16.695312 18 17.765625 17.472656 18.5 16.640625 L 18.5 19 L 12.5 19 Z M 12 20 C 12.550781 20 13 20.449219 13 21 C 13 21.117188 12.980469 21.222656 12.945312 21.320312 C 12.941406 21.324219 12.9375 21.332031 12.9375 21.339844 C 12.800781 21.734375 12.425781 22 12 22 C 11.574219 22 11.199219 21.734375 11.0625 21.339844 C 11.0625 21.332031 11.058594 21.324219 11.054688 21.320312 C 11.019531 21.222656 11 21.117188 11 21 C 11 20.449219 11.449219 20 12 20 Z M 9.5 19.5 L 10 19.5 C 10.277344 19.5 10.5 19.277344 10.5 19 C 10.5 18.722656 10.277344 18.5 10 18.5 L 9.5 18.5 L 9.5 18 L 10 18 C 10.277344 18 10.5 17.777344 10.5 17.5 C 10.5 17.222656 10.277344 17 10 17 L 9.5 17 L 9.5 16.5 L 10 16.5 C 10.277344 16.5 10.5 16.277344 10.5 16 C 10.5 15.722656 10.277344 15.5 10 15.5 L 9.707031 15.5 L 10.707031 14.5 L 11.5 14.5 L 11.5 19.0625 C 10.636719 19.285156 10 20.070312 10 21 L 9.5 21 Z M 9.5 19.5 "/>
<path style=" stroke:none;fill-rule:nonzero;fill:rgb(78.823529%,61.568627%,40%);fill-opacity:1;" d="M 10.855469 2.355469 C 10.753906 2.453125 10.628906 2.5 10.5 2.5 C 10.371094 2.5 10.246094 2.453125 10.144531 2.355469 L 9.644531 1.855469 C 9.546875 1.757812 9.5 1.628906 9.5 1.5 L 10.707031 1.5 L 10.855469 1.644531 C 11.046875 1.84375 11.046875 2.15625 10.855469 2.355469 Z M 10.855469 2.355469 "/>
<path style=" stroke:none;fill-rule:nonzero;fill:rgb(78.823529%,61.568627%,40%);fill-opacity:1;" d="M 7.855469 5.355469 C 7.753906 5.453125 7.628906 5.5 7.5 5.5 C 7.371094 5.5 7.246094 5.453125 7.144531 5.355469 L 7 5.207031 L 7 4 C 7.128906 4 7.257812 4.046875 7.355469 4.144531 L 7.855469 4.644531 C 8.046875 4.84375 8.046875 5.15625 7.855469 5.355469 Z M 7.855469 5.355469 "/>
<path style=" stroke:none;fill-rule:nonzero;fill:rgb(78.823529%,61.568627%,40%);fill-opacity:1;" d="M 22.5 1.5 C 22.5 1.628906 22.453125 1.757812 22.355469 1.855469 L 21.855469 2.355469 C 21.753906 2.453125 21.628906 2.5 21.5 2.5 C 21.371094 2.5 21.246094 2.453125 21.144531 2.355469 C 20.953125 2.15625 20.953125 1.84375 21.144531 1.644531 L 21.292969 1.5 Z M 22.5 1.5 "/>
<path style=" stroke:none;fill-rule:nonzero;fill:rgb(78.823529%,61.568627%,40%);fill-opacity:1;" d="M 25 4 L 25 5.207031 L 24.855469 5.355469 C 24.753906 5.453125 24.628906 5.5 24.5 5.5 C 24.371094 5.5 24.246094 5.453125 24.144531 5.355469 C 23.953125 5.15625 23.953125 4.84375 24.144531 4.644531 L 24.644531 4.144531 C 24.742188 4.046875 24.871094 4 25 4 Z M 25 4 "/>
<path style=" stroke:none;fill-rule:nonzero;fill:rgb(78.823529%,61.568627%,40%);fill-opacity:1;" d="M 10.855469 28.355469 L 10.707031 28.5 L 9.5 28.5 C 9.5 28.371094 9.546875 28.242188 9.644531 28.144531 L 10.144531 27.644531 C 10.34375 27.453125 10.65625 27.453125 10.855469 27.644531 C 11.046875 27.84375 11.046875 28.15625 10.855469 28.355469 Z M 10.855469 28.355469 "/>
<path style=" stroke:none;fill-rule:nonzero;fill:rgb(78.823529%,61.568627%,40%);fill-opacity:1;" d="M 7.855469 25.355469 L 7.355469 25.855469 C 7.253906 25.953125 7.128906 26 7 26 L 7 24.792969 L 7.144531 24.644531 C 7.34375 24.453125 7.65625 24.453125 7.855469 24.644531 C 8.046875 24.84375 8.046875 25.15625 7.855469 25.355469 Z M 7.855469 25.355469 "/>
</g>
</svg>
