<?xml version="1.0" encoding="UTF-8"?>
<svg xmlns="http://www.w3.org/2000/svg" xmlns:xlink="http://www.w3.org/1999/xlink" width="32pt" height="32pt" viewBox="0 0 32 32" version="1.1">
<g id="surface1">
<path style=" stroke:none;fill-rule:nonzero;fill:rgb(74.509804%,81.568627%,87.843137%);fill-opacity:1;" d="M 6.082031 17.964844 L 1.460938 22.359375 L 11.589844 26.753906 L 15.730469 20.214844 Z M 6.082031 17.964844 "/>
<path style=" stroke:none;fill-rule:nonzero;fill:rgb(74.509804%,81.568627%,87.843137%);fill-opacity:1;" d="M 22.628906 28.671875 L 31.429688 13.546875 C 31.792969 12.929688 32 12.207031 32 11.4375 C 32 9.128906 30.125 7.253906 27.816406 7.253906 C 27.300781 7.253906 26.691406 7.417969 26.238281 7.585938 L 18.960938 13.683594 L 15.171875 20.847656 Z M 22.628906 28.671875 "/>
<path style=" stroke:none;fill-rule:nonzero;fill:rgb(68.235294%,76.078431%,83.137255%);fill-opacity:1;" d="M 27.816406 7.253906 C 27.421875 7.253906 26.96875 7.351562 26.574219 7.472656 C 28.230469 8.03125 29.425781 9.59375 29.425781 11.4375 C 29.425781 12.207031 29.21875 12.929688 28.855469 13.546875 L 21.027344 26.996094 L 22.628906 28.671875 L 31.429688 13.546875 C 31.792969 12.929688 32 12.207031 32 11.4375 C 32 9.128906 30.125 7.253906 27.816406 7.253906 Z M 27.816406 7.253906 "/>
<path style=" stroke:none;fill-rule:nonzero;fill:rgb(74.509804%,81.568627%,87.843137%);fill-opacity:1;" d="M 16.175781 19.699219 L 26.980469 6.691406 C 27.503906 5.992188 27.816406 5.125 27.816406 4.183594 C 27.816406 1.875 25.941406 0 23.628906 0 C 22.527344 0 21.527344 0.425781 20.78125 1.121094 L 7.824219 11.753906 Z M 16.175781 19.699219 "/>
<path style=" stroke:none;fill-rule:nonzero;fill:rgb(68.235294%,76.078431%,83.137255%);fill-opacity:1;" d="M 23.628906 0 C 23.179688 0 22.75 0.0703125 22.34375 0.203125 C 24.023438 0.746094 25.238281 2.324219 25.238281 4.183594 C 25.238281 5.125 24.929688 5.992188 24.40625 6.691406 L 14.738281 18.332031 L 16.175781 19.699219 L 26.980469 6.691406 C 27.503906 5.992188 27.816406 5.125 27.816406 4.183594 C 27.816406 1.875 25.941406 0 23.628906 0 Z M 23.628906 0 "/>
<path style=" stroke:none;fill-rule:nonzero;fill:rgb(90.980392%,95.686275%,100%);fill-opacity:1;" d="M 17.382812 16.160156 C 17.382812 19.359375 14.789062 21.957031 11.589844 21.957031 C 8.390625 21.957031 5.792969 19.359375 5.792969 16.160156 C 5.792969 12.960938 8.390625 10.367188 11.589844 10.367188 C 14.789062 10.367188 17.382812 12.960938 17.382812 16.160156 Z M 17.382812 16.160156 "/>
<path style=" stroke:none;fill-rule:nonzero;fill:rgb(53.333333%,60.392157%,65.882353%);fill-opacity:1;" d="M 12.253906 12.027344 C 9.972656 11.660156 7.824219 13.207031 7.453125 15.488281 C 7.085938 17.769531 8.632812 19.917969 10.914062 20.289062 C 13.195312 20.660156 15.347656 19.109375 15.714844 16.828125 C 16.085938 14.546875 14.535156 12.398438 12.253906 12.027344 Z M 12.253906 12.027344 "/>
<path style=" stroke:none;fill-rule:nonzero;fill:rgb(46.27451%,54.117647%,60%);fill-opacity:1;" d="M 11.589844 11.976562 C 11.140625 11.976562 10.707031 12.046875 10.300781 12.179688 C 11.980469 12.722656 13.199219 14.300781 13.199219 16.160156 C 13.199219 18.019531 11.980469 19.597656 10.300781 20.140625 C 10.707031 20.273438 11.140625 20.347656 11.589844 20.347656 C 13.898438 20.347656 15.773438 18.46875 15.773438 16.160156 C 15.773438 13.851562 13.898438 11.976562 11.589844 11.976562 Z M 11.589844 11.976562 "/>
<path style=" stroke:none;fill-rule:nonzero;fill:rgb(90.980392%,95.686275%,100%);fill-opacity:1;" d="M 11.589844 26.207031 C 11.589844 29.40625 8.996094 32 5.792969 32 C 2.59375 32 0 29.40625 0 26.207031 C 0 23.003906 2.59375 20.410156 5.792969 20.410156 C 8.996094 20.410156 11.589844 23.003906 11.589844 26.207031 Z M 11.589844 26.207031 "/>
<path style=" stroke:none;fill-rule:nonzero;fill:rgb(53.333333%,60.392157%,65.882353%);fill-opacity:1;" d="M 6.460938 22.070312 C 4.179688 21.699219 2.03125 23.25 1.660156 25.53125 C 1.289062 27.8125 2.839844 29.960938 5.121094 30.332031 C 7.402344 30.703125 9.550781 29.152344 9.921875 26.871094 C 10.292969 24.589844 8.742188 22.441406 6.460938 22.070312 Z M 6.460938 22.070312 "/>
<path style=" stroke:none;fill-rule:nonzero;fill:rgb(46.27451%,54.117647%,60%);fill-opacity:1;" d="M 5.792969 22.019531 C 5.34375 22.019531 4.914062 22.09375 4.507812 22.222656 C 6.1875 22.769531 7.402344 24.347656 7.402344 26.207031 C 7.402344 28.0625 6.1875 29.640625 4.507812 30.1875 C 4.914062 30.316406 5.34375 30.390625 5.792969 30.390625 C 8.101562 30.390625 9.980469 28.511719 9.980469 26.207031 C 9.980469 23.898438 8.101562 22.019531 5.792969 22.019531 Z M 5.792969 22.019531 "/>
<path style=" stroke:none;fill-rule:nonzero;fill:rgb(90.980392%,95.686275%,100%);fill-opacity:1;" d="M 23.179688 26.207031 C 23.179688 29.40625 20.582031 32 17.382812 32 C 14.183594 32 11.589844 29.40625 11.589844 26.207031 C 11.589844 23.003906 14.183594 20.410156 17.382812 20.410156 C 20.582031 20.410156 23.179688 23.003906 23.179688 26.207031 Z M 23.179688 26.207031 "/>
<path style=" stroke:none;fill-rule:nonzero;fill:rgb(53.333333%,60.392157%,65.882353%);fill-opacity:1;" d="M 21.261719 24.601562 C 20.375 22.464844 17.925781 21.449219 15.792969 22.335938 C 13.65625 23.222656 12.640625 25.671875 13.527344 27.804688 C 14.414062 29.941406 16.859375 30.957031 18.996094 30.070312 C 21.132812 29.183594 22.144531 26.734375 21.261719 24.601562 Z M 21.261719 24.601562 "/>
<path style=" stroke:none;fill-rule:nonzero;fill:rgb(46.27451%,54.117647%,60%);fill-opacity:1;" d="M 17.382812 22.019531 C 16.933594 22.019531 16.5 22.09375 16.097656 22.222656 C 17.773438 22.769531 18.992188 24.347656 18.992188 26.207031 C 18.992188 28.0625 17.773438 29.640625 16.097656 30.1875 C 16.5 30.316406 16.933594 30.390625 17.382812 30.390625 C 19.691406 30.390625 21.566406 28.511719 21.566406 26.207031 C 21.566406 23.898438 19.691406 22.019531 17.382812 22.019531 Z M 17.382812 22.019531 "/>
</g>
</svg>
