<?xml version="1.0" encoding="UTF-8"?>
<svg xmlns="http://www.w3.org/2000/svg" xmlns:xlink="http://www.w3.org/1999/xlink" width="32pt" height="32pt" viewBox="0 0 32 32" version="1.1">
<g id="surface1">
<path style=" stroke:none;fill-rule:nonzero;fill:rgb(64.313725%,65.882353%,66.27451%);fill-opacity:1;" d="M 3 6 L 5 6 L 5 23 L 3 23 Z M 3 6 "/>
<path style=" stroke:none;fill-rule:nonzero;fill:rgb(48.235294%,49.411765%,49.803922%);fill-opacity:1;" d="M 5 6 L 7 6 L 7 23 L 5 23 Z M 5 6 "/>
<path style=" stroke:none;fill-rule:nonzero;fill:rgb(64.313725%,65.882353%,66.27451%);fill-opacity:1;" d="M 14 6 L 16 6 L 16 23 L 14 23 Z M 14 6 "/>
<path style=" stroke:none;fill-rule:nonzero;fill:rgb(48.235294%,49.411765%,49.803922%);fill-opacity:1;" d="M 16 6 L 18 6 L 18 23 L 16 23 Z M 16 6 "/>
<path style=" stroke:none;fill-rule:nonzero;fill:rgb(64.313725%,65.882353%,66.27451%);fill-opacity:1;" d="M 25 6 L 27 6 L 27 23 L 25 23 Z M 25 6 "/>
<path style=" stroke:none;fill-rule:nonzero;fill:rgb(48.235294%,49.411765%,49.803922%);fill-opacity:1;" d="M 27 6 L 29 6 L 29 23 L 27 23 Z M 27 6 "/>
<path style=" stroke:none;fill-rule:nonzero;fill:rgb(64.313725%,65.882353%,66.27451%);fill-opacity:1;" d="M 2 29 L 2 23 L 8 23 L 8 29 "/>
<path style=" stroke:none;fill-rule:nonzero;fill:rgb(85.882353%,87.843137%,88.235294%);fill-opacity:1;" d="M 2 23 L 6.5 23 L 6.5 29 L 2 29 Z M 2 23 "/>
<path style=" stroke:none;fill-rule:nonzero;fill:rgb(64.313725%,65.882353%,66.27451%);fill-opacity:1;" d="M 13 29 L 13 23 L 19 23 L 19 29 "/>
<path style=" stroke:none;fill-rule:nonzero;fill:rgb(85.882353%,87.843137%,88.235294%);fill-opacity:1;" d="M 13 23 L 17.5 23 L 17.5 29 L 13 29 Z M 13 23 "/>
<path style=" stroke:none;fill-rule:nonzero;fill:rgb(64.313725%,65.882353%,66.27451%);fill-opacity:1;" d="M 24 29 L 24 23 L 30 23 L 30 29 "/>
<path style=" stroke:none;fill-rule:nonzero;fill:rgb(85.882353%,87.843137%,88.235294%);fill-opacity:1;" d="M 24 23 L 28.5 23 L 28.5 29 L 24 29 Z M 24 23 "/>
<path style=" stroke:none;fill-rule:nonzero;fill:rgb(64.313725%,65.882353%,66.27451%);fill-opacity:1;" d="M 2 4 L 8 4 L 8 6 L 2 6 Z M 2 4 "/>
<path style=" stroke:none;fill-rule:nonzero;fill:rgb(85.882353%,87.843137%,88.235294%);fill-opacity:1;" d="M 2 4 L 6.5 4 L 6.5 6 L 2 6 Z M 2 4 "/>
<path style=" stroke:none;fill-rule:nonzero;fill:rgb(64.313725%,65.882353%,66.27451%);fill-opacity:1;" d="M 13 4 L 19 4 L 19 6 L 13 6 Z M 13 4 "/>
<path style=" stroke:none;fill-rule:nonzero;fill:rgb(85.882353%,87.843137%,88.235294%);fill-opacity:1;" d="M 13 4 L 17.5 4 L 17.5 6 L 13 6 Z M 13 4 "/>
<path style=" stroke:none;fill-rule:nonzero;fill:rgb(64.313725%,65.882353%,66.27451%);fill-opacity:1;" d="M 24 4 L 30 4 L 30 6 L 24 6 Z M 24 4 "/>
<path style=" stroke:none;fill-rule:nonzero;fill:rgb(85.882353%,87.843137%,88.235294%);fill-opacity:1;" d="M 24 4 L 28.5 4 L 28.5 6 L 24 6 Z M 24 4 "/>
<path style=" stroke:none;fill-rule:nonzero;fill:rgb(37.254902%,38.823529%,40%);fill-opacity:1;" d="M 1 29 L 9 29 L 9 31 L 1 31 Z M 1 29 "/>
<path style=" stroke:none;fill-rule:nonzero;fill:rgb(49.411765%,51.764706%,53.333333%);fill-opacity:1;" d="M 1 29 L 7.5 29 L 7.5 31 L 1 31 Z M 1 29 "/>
<path style=" stroke:none;fill-rule:nonzero;fill:rgb(37.254902%,38.823529%,40%);fill-opacity:1;" d="M 12 29 L 20 29 L 20 31 L 12 31 Z M 12 29 "/>
<path style=" stroke:none;fill-rule:nonzero;fill:rgb(49.411765%,51.764706%,53.333333%);fill-opacity:1;" d="M 12 29 L 18.5 29 L 18.5 31 L 12 31 Z M 12 29 "/>
<path style=" stroke:none;fill-rule:nonzero;fill:rgb(37.254902%,38.823529%,40%);fill-opacity:1;" d="M 23 29 L 31 29 L 31 31 L 23 31 Z M 23 29 "/>
<path style=" stroke:none;fill-rule:nonzero;fill:rgb(49.411765%,51.764706%,53.333333%);fill-opacity:1;" d="M 23 29 L 29.5 29 L 29.5 31 L 23 31 Z M 23 29 "/>
<path style=" stroke:none;fill-rule:nonzero;fill:rgb(37.254902%,38.823529%,40%);fill-opacity:1;" d="M 1 1 L 9 1 L 9 4 L 1 4 Z M 1 1 "/>
<path style=" stroke:none;fill-rule:nonzero;fill:rgb(49.411765%,51.764706%,53.333333%);fill-opacity:1;" d="M 1 1 L 7.5 1 L 7.5 4 L 1 4 Z M 1 1 "/>
<path style=" stroke:none;fill-rule:nonzero;fill:rgb(37.254902%,38.823529%,40%);fill-opacity:1;" d="M 12 1 L 20 1 L 20 4 L 12 4 Z M 12 1 "/>
<path style=" stroke:none;fill-rule:nonzero;fill:rgb(49.411765%,51.764706%,53.333333%);fill-opacity:1;" d="M 12 1 L 18.5 1 L 18.5 4 L 12 4 Z M 12 1 "/>
<path style=" stroke:none;fill-rule:nonzero;fill:rgb(37.254902%,38.823529%,40%);fill-opacity:1;" d="M 23 1 L 31 1 L 31 4 L 23 4 Z M 23 1 "/>
<path style=" stroke:none;fill-rule:nonzero;fill:rgb(49.411765%,51.764706%,53.333333%);fill-opacity:1;" d="M 23 1 L 29.5 1 L 29.5 4 L 23 4 Z M 23 1 "/>
</g>
</svg>
