<?xml version="1.0" encoding="UTF-8"?>
<svg xmlns="http://www.w3.org/2000/svg" xmlns:xlink="http://www.w3.org/1999/xlink" width="32pt" height="32pt" viewBox="0 0 32 32" version="1.1">
<g id="surface1">
<path style=" stroke:none;fill-rule:nonzero;fill:rgb(76.078431%,38.039216%,37.254902%);fill-opacity:1;" d="M 0.554688 15.449219 L 8.277344 15.449219 C 8.582031 15.449219 8.828125 15.695312 8.828125 16 L 8.828125 20.414062 C 8.828125 20.71875 8.582031 20.964844 8.277344 20.964844 L 0.554688 20.964844 C 0.25 20.964844 0 20.71875 0 20.414062 L 0 16 C 0 15.695312 0.25 15.449219 0.554688 15.449219 Z M 0.554688 15.449219 "/>
<path style=" stroke:none;fill-rule:nonzero;fill:rgb(94.117647%,47.058824%,35.294118%);fill-opacity:1;" d="M 13.28125 15.449219 L 9.378906 15.449219 C 9.074219 15.449219 8.828125 15.695312 8.828125 16 L 8.828125 20.414062 C 8.828125 20.71875 9.074219 20.964844 9.378906 20.964844 L 17.105469 20.964844 C 17.410156 20.964844 17.65625 20.71875 17.65625 20.414062 L 17.65625 16.757812 Z M 13.28125 15.449219 "/>
<path style=" stroke:none;fill-rule:nonzero;fill:rgb(76.078431%,38.039216%,37.254902%);fill-opacity:1;" d="M 23.796875 15.449219 L 25.929688 15.449219 C 26.234375 15.449219 26.484375 15.695312 26.484375 16 L 26.484375 20.414062 C 26.484375 20.71875 26.234375 20.964844 25.929688 20.964844 L 18.207031 20.964844 C 17.902344 20.964844 17.65625 20.71875 17.65625 20.414062 L 17.65625 16.757812 Z M 23.796875 15.449219 "/>
<path style=" stroke:none;fill-rule:nonzero;fill:rgb(80%,29.411765%,29.803922%);fill-opacity:1;" d="M 4.964844 20.964844 L 12.691406 20.964844 C 12.996094 20.964844 13.242188 21.214844 13.242188 21.519531 L 13.242188 25.929688 C 13.242188 26.234375 12.996094 26.484375 12.691406 26.484375 L 4.964844 26.484375 C 4.660156 26.484375 4.414062 26.234375 4.414062 25.929688 L 4.414062 21.519531 C 4.414062 21.214844 4.660156 20.964844 4.964844 20.964844 Z M 4.964844 20.964844 "/>
<path style=" stroke:none;fill-rule:nonzero;fill:rgb(50.196078%,18.431373%,20.392157%);fill-opacity:1;" d="M 13.792969 20.964844 L 21.519531 20.964844 C 21.824219 20.964844 22.070312 21.214844 22.070312 21.519531 L 22.070312 25.929688 C 22.070312 26.234375 21.824219 26.484375 21.519531 26.484375 L 13.792969 26.484375 C 13.488281 26.484375 13.242188 26.234375 13.242188 25.929688 L 13.242188 21.519531 C 13.242188 21.214844 13.488281 20.964844 13.792969 20.964844 Z M 13.792969 20.964844 "/>
<path style=" stroke:none;fill-rule:nonzero;fill:rgb(80%,29.411765%,29.803922%);fill-opacity:1;" d="M 22.621094 20.964844 L 30.34375 20.964844 C 30.648438 20.964844 30.894531 21.214844 30.894531 21.519531 L 30.894531 25.929688 C 30.894531 26.234375 30.648438 26.484375 30.34375 26.484375 L 22.621094 26.484375 C 22.316406 26.484375 22.070312 26.234375 22.070312 25.929688 L 22.070312 21.519531 C 22.070312 21.214844 22.316406 20.964844 22.621094 20.964844 Z M 22.621094 20.964844 "/>
<path style=" stroke:none;fill-rule:nonzero;fill:rgb(76.078431%,38.039216%,37.254902%);fill-opacity:1;" d="M 0.554688 26.484375 L 8.277344 26.484375 C 8.582031 26.484375 8.828125 26.730469 8.828125 27.035156 L 8.828125 31.449219 C 8.828125 31.753906 8.582031 32 8.277344 32 L 0.554688 32 C 0.25 32 0 31.753906 0 31.449219 L 0 27.035156 C 0 26.730469 0.25 26.484375 0.554688 26.484375 Z M 0.554688 26.484375 "/>
<path style=" stroke:none;fill-rule:nonzero;fill:rgb(94.117647%,47.058824%,35.294118%);fill-opacity:1;" d="M 9.378906 26.484375 L 17.105469 26.484375 C 17.410156 26.484375 17.65625 26.730469 17.65625 27.035156 L 17.65625 31.449219 C 17.65625 31.753906 17.410156 32 17.105469 32 L 9.378906 32 C 9.074219 32 8.828125 31.753906 8.828125 31.449219 L 8.828125 27.035156 C 8.828125 26.730469 9.074219 26.484375 9.378906 26.484375 Z M 9.378906 26.484375 "/>
<path style=" stroke:none;fill-rule:nonzero;fill:rgb(76.078431%,38.039216%,37.254902%);fill-opacity:1;" d="M 18.207031 26.484375 L 25.929688 26.484375 C 26.234375 26.484375 26.484375 26.730469 26.484375 27.035156 L 26.484375 31.449219 C 26.484375 31.753906 26.234375 32 25.929688 32 L 18.207031 32 C 17.902344 32 17.65625 31.753906 17.65625 31.449219 L 17.65625 27.035156 C 17.65625 26.730469 17.902344 26.484375 18.207031 26.484375 Z M 18.207031 26.484375 "/>
<path style=" stroke:none;fill-rule:nonzero;fill:rgb(74.117647%,76.470588%,78.039216%);fill-opacity:1;" d="M 24.417969 15.316406 L 13.472656 17.644531 C 13.195312 17.695312 12.910156 17.585938 12.742188 17.359375 C 12.570312 17.136719 12.546875 16.832031 12.671875 16.578125 L 17.96875 6.722656 C 18.089844 6.515625 18.304688 6.378906 18.546875 6.367188 C 18.789062 6.359375 19.015625 6.46875 19.15625 6.667969 L 24.804688 14.195312 C 24.953125 14.382812 25 14.636719 24.921875 14.863281 C 24.839844 15.089844 24.652344 15.261719 24.417969 15.316406 Z M 24.417969 15.316406 "/>
<path style=" stroke:none;fill-rule:nonzero;fill:rgb(58.431373%,64.705882%,64.705882%);fill-opacity:1;" d="M 19.261719 13.019531 C 19.023438 13.019531 18.8125 12.871094 18.738281 12.644531 C 18.664062 12.417969 18.742188 12.171875 18.933594 12.027344 L 23.242188 8.796875 C 23.457031 8.632812 23.578125 8.375 23.5625 8.105469 L 23.507812 7.113281 C 23.472656 6.472656 23.757812 5.859375 24.269531 5.476562 L 25.859375 4.28125 C 26.019531 4.164062 26.226562 4.140625 26.40625 4.214844 C 26.589844 4.292969 26.714844 4.460938 26.738281 4.65625 C 26.761719 4.851562 26.679688 5.046875 26.523438 5.164062 L 24.929688 6.359375 C 24.714844 6.519531 24.59375 6.78125 24.609375 7.050781 L 24.664062 8.042969 C 24.699219 8.679688 24.414062 9.292969 23.902344 9.675781 L 19.59375 12.910156 C 19.496094 12.984375 19.382812 13.023438 19.261719 13.019531 Z M 19.261719 13.019531 "/>
<path style=" stroke:none;fill-rule:nonzero;fill:rgb(94.901961%,61.176471%,12.156863%);fill-opacity:1;" d="M 25.816406 3.304688 L 29.925781 0.21875 C 30.414062 -0.144531 31.105469 -0.046875 31.472656 0.441406 L 31.777344 0.851562 C 32.144531 1.335938 32.046875 2.027344 31.558594 2.394531 L 27.449219 5.476562 C 27.203125 5.660156 26.859375 5.613281 26.675781 5.367188 L 25.707031 4.078125 C 25.523438 3.832031 25.574219 3.488281 25.816406 3.304688 Z M 25.816406 3.304688 "/>
<path style=" stroke:none;fill-rule:nonzero;fill:rgb(98.431373%,48.235294%,46.27451%);fill-opacity:1;" d="M 2.207031 17.65625 C 2.207031 17.960938 1.960938 18.207031 1.65625 18.207031 L 0 18.207031 L 0 17.105469 L 1.65625 17.105469 C 1.960938 17.105469 2.207031 17.351562 2.207031 17.65625 Z M 2.207031 17.65625 "/>
<path style=" stroke:none;fill-rule:nonzero;fill:rgb(98.431373%,48.235294%,46.27451%);fill-opacity:1;" d="M 6.070312 18.207031 L 3.863281 18.207031 C 3.558594 18.207031 3.3125 17.960938 3.3125 17.65625 C 3.3125 17.351562 3.558594 17.105469 3.863281 17.105469 L 6.070312 17.105469 C 6.375 17.105469 6.621094 17.351562 6.621094 17.65625 C 6.621094 17.960938 6.375 18.207031 6.070312 18.207031 Z M 6.070312 18.207031 "/>
</g>
</svg>
